G04 #@! TF.GenerationSoftware,KiCad,Pcbnew,(5.1.9-0-10_14)*
G04 #@! TF.CreationDate,2022-09-19T14:57:36+02:00*
G04 #@! TF.ProjectId,outdoor,6f757464-6f6f-4722-9e6b-696361645f70,rev?*
G04 #@! TF.SameCoordinates,Original*
G04 #@! TF.FileFunction,Copper,L1,Top*
G04 #@! TF.FilePolarity,Positive*
%FSLAX46Y46*%
G04 Gerber Fmt 4.6, Leading zero omitted, Abs format (unit mm)*
G04 Created by KiCad (PCBNEW (5.1.9-0-10_14)) date 2022-09-19 14:57:36*
%MOMM*%
%LPD*%
G01*
G04 APERTURE LIST*
G04 #@! TA.AperFunction,ComponentPad*
%ADD10R,1.500000X1.500000*%
G04 #@! TD*
G04 #@! TA.AperFunction,ComponentPad*
%ADD11C,1.500000*%
G04 #@! TD*
G04 #@! TA.AperFunction,ComponentPad*
%ADD12O,1.600000X1.600000*%
G04 #@! TD*
G04 #@! TA.AperFunction,ComponentPad*
%ADD13R,1.600000X1.600000*%
G04 #@! TD*
G04 #@! TA.AperFunction,ComponentPad*
%ADD14O,1.700000X1.700000*%
G04 #@! TD*
G04 #@! TA.AperFunction,ComponentPad*
%ADD15R,1.700000X1.700000*%
G04 #@! TD*
G04 #@! TA.AperFunction,ComponentPad*
%ADD16C,1.600000*%
G04 #@! TD*
G04 #@! TA.AperFunction,Conductor*
%ADD17C,0.500000*%
G04 #@! TD*
G04 APERTURE END LIST*
D10*
X49000000Y-107000000D03*
D11*
X54080000Y-107000000D03*
X51540000Y-107000000D03*
D12*
X71000000Y-107620000D03*
X63380000Y-100000000D03*
X68460000Y-107620000D03*
X65920000Y-100000000D03*
X65920000Y-107620000D03*
X68460000Y-100000000D03*
X63380000Y-107620000D03*
D13*
X71000000Y-100000000D03*
D14*
X69290000Y-82000000D03*
D15*
X66750000Y-82000000D03*
D12*
X64000000Y-96160000D03*
D16*
X64000000Y-86000000D03*
D14*
X88773000Y-103124000D03*
X86233000Y-103124000D03*
D15*
X83693000Y-103124000D03*
D12*
X72000000Y-85840000D03*
D13*
X72000000Y-96000000D03*
D12*
X68000000Y-96160000D03*
D13*
X68000000Y-86000000D03*
D14*
X52000000Y-82000000D03*
D15*
X52000000Y-101000000D03*
D17*
X68000000Y-86000000D02*
X68000000Y-89480000D01*
X68000000Y-89480000D02*
X71755000Y-93235000D01*
X71755000Y-93235000D02*
X71755000Y-93345000D01*
X72000000Y-93590000D02*
X72000000Y-96000000D01*
X71755000Y-93345000D02*
X72000000Y-93590000D01*
X54080000Y-103080000D02*
X52000000Y-101000000D01*
X54080000Y-104245000D02*
X69701000Y-104245000D01*
X54080000Y-107000000D02*
X54080000Y-104245000D01*
X54080000Y-104245000D02*
X54080000Y-103080000D01*
X71000000Y-105544000D02*
X71000000Y-107620000D01*
X69701000Y-104245000D02*
X71000000Y-105544000D01*
X69701000Y-104245000D02*
X69745000Y-104245000D01*
X69745000Y-104245000D02*
X70866000Y-103124000D01*
X70866000Y-103124000D02*
X71882000Y-103124000D01*
X71882000Y-103124000D02*
X73914000Y-101092000D01*
X73914000Y-97914000D02*
X72000000Y-96000000D01*
X73914000Y-101092000D02*
X73914000Y-97914000D01*
X64000000Y-96160000D02*
X68000000Y-96160000D01*
X66750000Y-82000000D02*
X65955000Y-82000000D01*
X64000000Y-83955000D02*
X64000000Y-86000000D01*
X65955000Y-82000000D02*
X64000000Y-83955000D01*
M02*
