G04 #@! TF.GenerationSoftware,KiCad,Pcbnew,(5.1.9-0-10_14)*
G04 #@! TF.CreationDate,2023-01-31T12:43:28+01:00*
G04 #@! TF.ProjectId,outdoor,6f757464-6f6f-4722-9e6b-696361645f70,rev?*
G04 #@! TF.SameCoordinates,Original*
G04 #@! TF.FileFunction,Copper,L1,Top*
G04 #@! TF.FilePolarity,Positive*
%FSLAX46Y46*%
G04 Gerber Fmt 4.6, Leading zero omitted, Abs format (unit mm)*
G04 Created by KiCad (PCBNEW (5.1.9-0-10_14)) date 2023-01-31 12:43:28*
%MOMM*%
%LPD*%
G01*
G04 APERTURE LIST*
G04 #@! TA.AperFunction,ComponentPad*
%ADD10O,1.600000X1.600000*%
G04 #@! TD*
G04 #@! TA.AperFunction,ComponentPad*
%ADD11R,1.600000X1.600000*%
G04 #@! TD*
G04 #@! TA.AperFunction,ComponentPad*
%ADD12R,1.500000X1.500000*%
G04 #@! TD*
G04 #@! TA.AperFunction,ComponentPad*
%ADD13C,1.500000*%
G04 #@! TD*
G04 #@! TA.AperFunction,ComponentPad*
%ADD14C,1.600000*%
G04 #@! TD*
G04 #@! TA.AperFunction,ComponentPad*
%ADD15C,2.000000*%
G04 #@! TD*
G04 #@! TA.AperFunction,ComponentPad*
%ADD16O,1.700000X1.700000*%
G04 #@! TD*
G04 #@! TA.AperFunction,ComponentPad*
%ADD17R,1.700000X1.700000*%
G04 #@! TD*
G04 #@! TA.AperFunction,Conductor*
%ADD18C,0.250000*%
G04 #@! TD*
G04 APERTURE END LIST*
D10*
X68580000Y-92964000D03*
X60960000Y-100584000D03*
X68580000Y-95504000D03*
X60960000Y-98044000D03*
X68580000Y-98044000D03*
X60960000Y-95504000D03*
X68580000Y-100584000D03*
D11*
X60960000Y-92964000D03*
D12*
X88460000Y-161544000D03*
D13*
X93540000Y-161544000D03*
X91000000Y-161544000D03*
D10*
X72644000Y-101346000D03*
D14*
X72644000Y-91186000D03*
D12*
X52000000Y-88000000D03*
D13*
X52000000Y-82920000D03*
X52000000Y-85460000D03*
D15*
X51966000Y-92202000D03*
X51966000Y-96702000D03*
X45466000Y-92202000D03*
X45466000Y-96702000D03*
D10*
X56000000Y-102870000D03*
D14*
X56000000Y-92710000D03*
X46990000Y-88000000D03*
X46990000Y-83000000D03*
X57150000Y-88185000D03*
X57150000Y-83185000D03*
D16*
X50292000Y-101854000D03*
D17*
X47752000Y-101854000D03*
D16*
X89235000Y-103124000D03*
X86695000Y-103124000D03*
D17*
X84155000Y-103124000D03*
D10*
X62135000Y-87000000D03*
D14*
X72295000Y-87000000D03*
D10*
X72295000Y-83000000D03*
D14*
X62135000Y-83000000D03*
D18*
X60452000Y-100584000D02*
X60960000Y-100584000D01*
X58928000Y-99060000D02*
X60452000Y-100584000D01*
X58928000Y-90207000D02*
X58928000Y-99060000D01*
X62135000Y-87000000D02*
X58928000Y-90207000D01*
X60960000Y-100584000D02*
X60960000Y-102108000D01*
X60960000Y-102108000D02*
X64516000Y-105664000D01*
X89235000Y-104567000D02*
X89235000Y-103124000D01*
X88138000Y-105664000D02*
X89235000Y-104567000D01*
X72644000Y-105664000D02*
X88138000Y-105664000D01*
X72644000Y-101346000D02*
X72644000Y-105664000D01*
X64516000Y-105664000D02*
X72644000Y-105664000D01*
X88138000Y-161222000D02*
X88460000Y-161544000D01*
X88138000Y-105664000D02*
X88138000Y-161222000D01*
X49530000Y-97282000D02*
X49530000Y-86360000D01*
X47752000Y-99060000D02*
X49530000Y-97282000D01*
X50430000Y-85460000D02*
X52000000Y-85460000D01*
X49530000Y-86360000D02*
X50430000Y-85460000D01*
X47752000Y-101854000D02*
X47752000Y-99060000D01*
X68580000Y-95504000D02*
X70358000Y-95504000D01*
X72644000Y-93218000D02*
X72644000Y-91186000D01*
X70358000Y-95504000D02*
X72644000Y-93218000D01*
X60960000Y-95504000D02*
X69342000Y-87122000D01*
X72173000Y-87122000D02*
X72295000Y-87000000D01*
X69342000Y-87122000D02*
X72173000Y-87122000D01*
M02*
