M48
INCH,TZ
T1C0.0315
T2C0.0394
T3C0.0433
%
G90
G05
T1
X18500Y-32677
X18500Y-34646
X20472Y-32646
X20472Y-33646
X20472Y-34646
X22047Y-36500
X22047Y-40500
X22500Y-32750
X22500Y-34719
X24000Y-36600
X24000Y-37600
X24000Y-38600
X24000Y-39600
X24463Y-32677
X24463Y-34252
X27000Y-36600
X27000Y-37600
X27000Y-38600
X27000Y-39600
X28463Y-32677
X28463Y-34252
X28600Y-35900
X28600Y-39900
X34827Y-63600
X35827Y-63600
X36827Y-63600
T2
X18800Y-40100
X19800Y-40100
X33132Y-40600
X34132Y-40600
X35132Y-40600
T3
X17900Y-36300
X17900Y-38072
X20459Y-36300
X20459Y-38072
T0
M30
