M48
INCH,TZ
T1C0.0315
T2C0.0394
%
G90
G05
T1
X19291Y-42126
X20291Y-42126
X21291Y-42126
X24953Y-39370
X24953Y-42370
X25197Y-33858
X25197Y-37858
X25953Y-39370
X25953Y-42370
X26772Y-33858
X26772Y-37858
X26953Y-39370
X26953Y-42370
X27953Y-39370
X27953Y-42370
X28346Y-33795
X28346Y-37795
T2
X20472Y-32283
X20472Y-39764
X26280Y-32283
X27280Y-32283
X32950Y-40600
X33950Y-40600
X34950Y-40600
T0
M30
